<svg xmlns="http://www.w3.org/2000/svg" width="268.56mm" height="268.56mm" viewBox="0 0 761.26 761.26"><title>cirkeldiagram_færdigfærdig</title><g id="bagerstecirkel"><circle cx="380.63" cy="380.63" r="380.13" fill="#73cae6" stroke="#73cae6" stroke-miterlimit="10"/></g><g id="cirkel2"><circle cx="380.63" cy="380.63" r="321.07" fill="#009ac6" stroke="#009ac6" stroke-miterlimit="10"/></g><g id="stroke"><circle cx="380.63" cy="380.63" r="271.73" fill="none" stroke="#b0dff8" stroke-miterlimit="10" stroke-width="100"/></g><g id="farvecirkel"><circle cx="380.63" cy="380.47" r="226.52" fill="#213252" stroke="#213252" stroke-miterlimit="10"/><path d="M396,396.31V169.78s131.56-7.87,200.35,120.73Z" transform="translate(-15.37 -15.84)" fill="#00b9ea" stroke="#00b9ea" stroke-miterlimit="10"/><path d="M396,396.31l200.35-105.8s58.06,90.32,0,211.6Z" transform="translate(-15.37 -15.84)" fill="#00778f" stroke="#00778f" stroke-miterlimit="10"/><path d="M396,396.31V622.83S273.42,631.27,203.22,515.3Z" transform="translate(-15.37 -15.84)" fill="#00b9ea" stroke="#00b9ea" stroke-miterlimit="10"/><path d="M396,396.31l-192.78,119s-70.14-111.21-7.57-224.79Z" transform="translate(-15.37 -15.84)" fill="#00778f" stroke="#00778f" stroke-miterlimit="10"/></g><g id="måneder"><text transform="translate(449.36 240.56)" font-size="18" fill="#fff" font-family="Georgia, Georgia">6 mdr.</text><text transform="translate(530.61 385.76)" font-size="18" fill="#fff" font-family="Georgia, Georgia">12 mdr.</text><text transform="translate(441.89 539.06)" font-size="18" fill="#fff" font-family="Georgia, Georgia">18 mdr.</text><text transform="translate(261.53 540.09)" font-size="18" fill="#fff" font-family="Georgia, Georgia">24 mdr.</text><text transform="translate(168.95 390.33)" font-size="18" fill="#fff" font-family="Georgia, Georgia">30 mdr.</text><text transform="translate(264.06 241.87)" font-size="18" fill="#fff" font-family="Georgia, Georgia">36 mdr.</text></g><g id="hvidcirkel"><circle cx="380.63" cy="385.2" r="128.14" fill="#fff" stroke="#fff" stroke-miterlimit="10"/></g></svg>
